<?xml version="1.0" encoding="utf-8"?>
<!-- Generator: Adobe Illustrator 15.0.0, SVG Export Plug-In . SVG Version: 6.00 Build 0)  -->
<!DOCTYPE svg PUBLIC "-//W3C//DTD SVG 1.1//EN" "http://www.w3.org/Graphics/SVG/1.1/DTD/svg11.dtd">
<svg version="1.1" id="Layer_1" xmlns="http://www.w3.org/2000/svg" xmlns:xlink="http://www.w3.org/1999/xlink" x="0px" y="0px"
	 width="300px" height="300px" viewBox="0 0 300 300" enable-background="new 0 0 300 300" xml:space="preserve">
<path fill="none" stroke="#000000" stroke-miterlimit="10" d="M126.866,125.575c-0.308-5.344,3.564-8.237,9.3-6.053
	c5.316,2.024,4.687,8.134,11.127,9.223c12.458,2.108,10.056-17.235,19.208-16.246c5.242,0.567,6.492,11.227,6.969,15.268
	c0.891,7.573-1.062,13.994-2.213,21.405c-1.061,6.827-2.778,39.171-13.256,18.413c-1.863-3.694-1.439-10.283-6.76-11.01
	c-3.078-0.422-4.095,0.936-4.937,3.804c-0.918,3.132,0.495,7.694-2.362,9.966c-3.571,2.838-8.823-0.206-10.483-3.488
	c-3.852-7.613-2.046-16.4-3.57-24.374C128.876,137.173,128.193,130.836,126.866,125.575"/>
</svg>
