<?xml version="1.0" encoding="utf-8"?>
<!-- Generator: Adobe Illustrator 15.0.0, SVG Export Plug-In . SVG Version: 6.00 Build 0)  -->
<!DOCTYPE svg PUBLIC "-//W3C//DTD SVG 1.1//EN" "http://www.w3.org/Graphics/SVG/1.1/DTD/svg11.dtd">
<svg version="1.1" id="Layer_1" xmlns="http://www.w3.org/2000/svg" xmlns:xlink="http://www.w3.org/1999/xlink" x="0px" y="0px"
	 width="300px" height="300px" viewBox="0 0 300 300" enable-background="new 0 0 300 300" xml:space="preserve">
<path fill="none" stroke="#000000" stroke-miterlimit="10" d="M120.288,143.638c0-5.611-0.734-11.818-0.025-17.364
	c1.58-12.355,15.037-6.299,21.522-1.67c3.687,2.632,4.882,8.399,9.959,8.699c6.031,0.355,9.541-10.109,16.498-6.912
	c3.96,1.82,4.781,9.079,6.314,12.593c1.742,3.997,3.248,8.12,5.375,11.966c2.43,4.392,1.801,9.072,0.979,14.13
	c-0.736,4.522-0.819,14.738-5.657,17.215c-5.128,2.625-12.638-2.267-15.67-6.405c-2.233-3.049-2.574-5.202-6.614-6.049
	c-3.412-0.714-7.561-0.876-10.196,1.583c-2.265,2.111-2.246,5.711-4.773,7.582c-4.98,3.689-13.27,0.175-15.669-4.9
	c-1.549-3.274-0.985-7.646-0.985-11.219C121.345,157.399,120.288,149.076,120.288,143.638c0-1.047-0.081,2.68-0.081,2.68"/>
</svg>
